<?xml version="1.0" encoding="UTF-8"?>
<svg id="Layer_1" data-name="Layer 1" xmlns="http://www.w3.org/2000/svg" xmlns:xlink="http://www.w3.org/1999/xlink" viewBox="0 0 112.11 123.71">
  <defs>
    <linearGradient id="linear-gradient" x1="0" y1="61.86" x2="112.11" y2="61.86" gradientUnits="userSpaceOnUse">
      <stop offset="0" stop-color="#fff"/>
      <stop offset=".42" stop-color="#002a00"/>
      <stop offset="1" stop-color="#09002a"/>
    </linearGradient>
  </defs>
  <path d="m.7,85.91c24.68,40.13,68.96,33.63,88.06,13.09,21.08-22.66,19.17-58.11-4.66-78.31C60.57.76,20.35,3.88.71,37.55c-.38-5.14-1.77-10.21,2.29-15.02C20.19,2.15,47.12-5.27,71.63,3.85c24.63,9.17,40.79,32.79,40.48,59.18-.31,25.93-17.51,49.19-42.61,57.61-24.21,8.12-51.59-.26-67.3-20.37-3.37-4.32-1.97-8.67-1.49-14.36Z" fill="url(#linear-gradient)" stroke-width="0"/>
</svg>